<svg width="28" height="29" viewBox="0 0 28 29" fill="none" xmlns="http://www.w3.org/2000/svg">
<path d="M13.9092 11.2584V17.0163H21.7399C20.5884 20.1256 17.5942 22.1984 14.1395 22.1984C9.64834 22.1984 6.07845 18.6285 6.07845 14.1374C6.07845 9.64622 9.64834 6.07633 14.1395 6.07633C15.8669 6.07633 17.4791 6.65212 18.861 7.57338L19.3216 7.91886L22.7763 3.4277L22.3157 3.08222C19.8974 1.35486 17.1336 0.433594 14.1395 0.433594C6.53908 0.433594 0.320557 6.65212 0.320557 14.2525C0.320557 21.853 6.53908 28.0715 14.1395 28.0715C21.7399 28.0715 27.9584 21.853 27.9584 14.2525V11.3736H13.9092V11.2584Z" fill="white"/>
</svg>
