<svg width="18" height="36" viewBox="0 0 18 36" fill="none" xmlns="http://www.w3.org/2000/svg">
<path d="M13.7405 19.1936H11.6983C8.48934 19.1936 5.37748 16.9596 5.37748 11.3733C5.37748 5.55521 8.2951 3.18111 11.2606 3.18111H13.7405V19.1936ZM16.9495 0.20202H11.407C5.96021 0.20202 1.34232 4.15928 1.34232 11.8394C1.34232 16.4476 3.57875 19.8457 7.56603 21.5205L0.126311 34.3679C-0.117156 34.787 0.126311 35.113 0.514794 35.113H3.96724C4.2586 35.113 4.45417 35.0201 4.55129 34.787L11.3098 22.1727H13.7405V34.787C13.7405 34.9271 13.8869 35.113 14.0811 35.113H17.0958C17.3872 35.113 17.4843 34.9729 17.4843 34.7411V0.666907C17.4843 0.342124 17.2901 0.20202 16.9495 0.20202Z" fill="white"/>
</svg>
