<svg width="32" height="18" viewBox="0 0 32 18" fill="none" xmlns="http://www.w3.org/2000/svg">
<path d="M30.7354 16.0983C30.7354 15.9776 30.6146 15.9776 30.6146 15.8568C30.1315 14.8907 29.0446 13.683 27.5954 12.3546C26.8708 11.7507 26.5085 11.2676 26.267 11.0261C25.9047 10.543 25.9047 10.1808 26.0255 9.69768C26.1462 9.33538 26.6293 8.73153 27.4746 7.64463C27.9577 7.04079 28.1992 6.6785 28.5615 6.3162C30.373 3.90085 31.2184 2.33086 30.9769 1.60626L30.8561 1.4855C30.7354 1.36474 30.6146 1.24397 30.373 1.24397C30.1315 1.12321 29.7692 1.12321 29.4069 1.24397H24.8178C24.697 1.24397 24.697 1.24397 24.4555 1.24397C24.3347 1.24397 24.2139 1.24397 24.2139 1.24397H24.0932H23.9724L23.8516 1.36473C23.7309 1.4855 23.7308 1.48549 23.7308 1.60626C23.2478 2.9347 22.6439 4.02161 22.0401 5.22928C21.6778 5.83312 21.3155 6.43696 20.9532 6.92003C20.5909 7.4031 20.3494 7.7654 20.1078 8.00693C19.8663 8.24847 19.6248 8.36923 19.504 8.61077C19.3832 8.73153 19.1417 8.85231 19.1417 8.73154C19.0209 8.73154 18.9002 8.73153 18.9002 8.61077C18.7794 8.49 18.6586 8.36923 18.5379 8.24846C18.4171 8.1277 18.4171 7.88616 18.2963 7.64463C18.2963 7.40309 18.2963 7.16156 18.2963 7.04079C18.2963 6.92002 18.2963 6.55773 18.2963 6.3162C18.2963 5.9539 18.2963 5.71235 18.2963 5.59159C18.2963 5.22928 18.2963 4.74623 18.2963 4.26316C18.2963 3.78009 18.2963 3.41777 18.2963 3.17624C18.2963 2.93471 18.2963 2.57241 18.2963 2.33087C18.2963 1.96857 18.2963 1.72703 18.2963 1.60626C18.2963 1.48549 18.1756 1.24397 18.1756 1.1232C18.0548 1.00243 17.934 0.881661 17.8133 0.760894C17.6925 0.640127 17.451 0.64013 17.3302 0.519363C16.7264 0.398596 16.0018 0.277832 15.1564 0.277832C13.2241 0.277832 11.8957 0.398603 11.4126 0.640138C11.1711 0.760905 10.9295 0.881665 10.8088 1.1232C10.5672 1.36473 10.5672 1.4855 10.688 1.4855C11.2918 1.60627 11.7749 1.8478 12.0164 2.2101L12.1372 2.45165C12.258 2.57241 12.258 2.81394 12.3787 3.17624C12.4995 3.53854 12.4995 3.90084 12.4995 4.38391C12.4995 5.10852 12.4995 5.83313 12.4995 6.3162C12.4995 6.92003 12.3787 7.28232 12.3787 7.64463C12.3787 8.00693 12.258 8.24847 12.1372 8.36924C12.0164 8.61077 12.0164 8.73154 11.8957 8.73154C11.8957 8.73154 11.8957 8.8523 11.7749 8.8523C11.6541 8.8523 11.5334 8.97307 11.2918 8.97307C11.1711 8.97307 10.9295 8.85231 10.8088 8.73154C10.5672 8.61077 10.3257 8.36924 10.2049 8.12771C9.9634 7.88617 9.72186 7.52386 9.48032 7.04079C9.23879 6.55772 8.87647 6.07466 8.63494 5.35005L8.39342 4.86699C8.27266 4.62546 8.03112 4.14238 7.78959 3.53855C7.54805 2.93471 7.30651 2.45165 7.06498 1.84781C6.94421 1.60628 6.82346 1.4855 6.70269 1.36473H6.58191C6.58191 1.36473 6.46113 1.24397 6.34037 1.24397C6.2196 1.24397 6.09885 1.1232 5.97808 1.1232H1.63045C1.14738 1.1232 0.905849 1.24396 0.785081 1.36473L0.664307 1.4855C0.664307 1.4855 0.664307 1.60627 0.664307 1.72704C0.664307 1.8478 0.664314 1.96856 0.785081 2.2101C1.38892 3.65931 2.11352 5.10852 2.83812 6.55773C3.56273 7.88617 4.28734 9.09384 4.77041 9.93922C5.37424 10.7846 5.8573 11.63 6.46114 12.3546C7.06498 13.0792 7.42727 13.5622 7.54804 13.8038C7.78957 14.0453 7.91033 14.1661 8.0311 14.2868L8.39342 14.6491C8.63496 14.8907 8.99725 15.253 9.48032 15.6153C9.96339 15.9776 10.5672 16.3399 11.1711 16.7022C11.7749 17.0645 12.4995 17.306 13.2241 17.5476C14.0695 17.7891 14.7941 17.9099 15.5187 17.7891H17.3302C17.6925 17.7891 17.934 17.6683 18.1756 17.4268L18.2963 17.306C18.2963 17.1852 18.4171 17.1852 18.4171 17.0645C18.4171 16.9437 18.4171 16.823 18.4171 16.5814C18.4171 16.0983 18.4171 15.736 18.5379 15.3737C18.6586 15.0114 18.6586 14.7699 18.7794 14.5284C18.9002 14.2868 19.0209 14.1661 19.1417 14.0453C19.2625 13.9245 19.3833 13.8038 19.3833 13.8038H19.504C19.7455 13.683 20.1078 13.8038 20.3494 14.0453C20.7117 14.2868 21.074 14.6491 21.3155 15.0114C21.557 15.3737 21.9194 15.736 22.4024 16.2191C22.8855 16.7022 23.2478 17.0645 23.4893 17.1853L23.8516 17.4268C24.0932 17.5476 24.3347 17.6683 24.697 17.7891C25.0593 17.9099 25.3008 17.9098 25.5424 17.9098L29.6485 17.7891C30.0108 17.7891 30.3731 17.6683 30.6146 17.5476C30.8561 17.4268 30.9769 17.306 30.9769 17.0645C30.9769 16.9437 30.9769 16.7022 30.9769 16.5814C30.7353 16.3399 30.7354 16.2191 30.7354 16.0983Z" fill="white"/>
</svg>
